<?xml version="1.0" encoding="utf-8"?>
<!-- Generator: Adobe Illustrator 18.0.0, SVG Export Plug-In . SVG Version: 6.00 Build 0)  -->
<!DOCTYPE svg PUBLIC "-//W3C//DTD SVG 1.1//EN" "http://www.w3.org/Graphics/SVG/1.1/DTD/svg11.dtd">
<svg version="1.1" id="Calque_3" xmlns="http://www.w3.org/2000/svg" xmlns:xlink="http://www.w3.org/1999/xlink" x="0px" y="0px"
	 width="90.5px" height="41px" viewBox="0 0 90.5 41" enable-background="new 0 0 90.5 41" xml:space="preserve">
<g>
	<path fill="#FFFFFF" d="M11.8,36.3c0-1.9,0-3.8,0-5.7c-0.1,0-0.3,0-0.4-0.1c-2.2-0.4-4.2-1.2-6-2.6C3,26,1.4,23.5,0.6,20.6
		c-0.2-0.8-0.4-1.7-0.4-2.6c0-0.6,0-1.3,0-1.9c0.2-2.1,0.8-4.1,1.9-6c2-3.2,4.9-5.3,8.5-6.2c1.2-0.3,2.5-0.4,3.7-0.3
		c5.7,0.3,10.4,4,12.1,9c0.3,1,0.6,2,0.7,3c0.1,0.9,0.1,1.8,0,2.6c-0.3,3-1.4,5.6-3.4,7.9c-1.5,1.7-3.2,2.9-5.3,3.7
		c-0.1,0-0.2,0.1-0.2,0.1c-1.8,1.1-3.4,2.4-4.8,3.9C12.9,34.5,12.3,35.3,11.8,36.3C11.9,36.3,11.9,36.3,11.8,36.3
		C11.8,36.3,11.8,36.3,11.8,36.3z M5.8,14.6c0.2,0,0.2,0,0.3-0.1c0.2-0.2,0.4-0.5,0.7-0.7c0.7-0.7,1.6-1.1,2.5-1.4
		c0.8-0.2,1.6-0.4,2.4-0.4c0.7,0,1.4,0,2.1,0.1c0.5,0.1,0.9,0.2,1.4,0.5c0.5,0.3,0.9,0.7,1.1,1.2c0.3,0.7,0.3,1.5,0.1,2.2
		c-0.2,0.6-0.6,1-1,1.4c-0.8,0.6-1.5,1.2-2.3,1.9c-0.5,0.4-0.9,0.7-1.4,1.2c-0.5,0.5-0.9,1.1-1.3,1.8c-0.4,0.8-0.5,1.6-0.5,2.5
		c0,0.1,0,0.2,0,0.3c0.2,1.1,1.3,1.9,2.2,2c0.7,0,1.3,0,2,0c0,0,0,0,0.1,0c0-0.1,0-0.1,0-0.2c0-0.6,0-1.2,0-1.8
		c0-0.6,0.3-1.2,0.7-1.7c0.3-0.3,0.6-0.6,0.9-0.9c1.1-0.9,2.1-1.8,3.2-2.7c0.5-0.5,1.1-0.9,1.5-1.5c0.5-0.6,0.9-1.3,1.1-2.1
		c0.3-0.9,0.3-1.9,0.1-2.9C21.3,11.5,20.4,10,19,9c-1.1-0.8-2.3-1.2-3.6-1.5c-0.9-0.2-1.9-0.2-2.8-0.2c-0.8,0-1.7,0.2-2.5,0.4
		C9.1,8,8.2,8.4,7.5,9.1c-1,0.9-1.6,2.1-1.7,3.5C5.7,13.2,5.7,13.9,5.8,14.6C5.7,14.6,5.8,14.6,5.8,14.6z"/>
	<path fill="#FFFFFF" d="M71.3,7.6c1.7,0,3.3,0,5,0c0.1,0.3,0.2,0.5,0.3,0.8c0.8,2.5,1.7,4.9,2.5,7.4c0.3,0.9,0.6,1.8,0.8,2.7
		c0,0.1,0,0.1,0,0.2c0,0,0,0,0,0c0,0,0-0.1,0-0.1c0.3-1,0.6-1.9,0.9-2.9c0.7-2.2,1.5-4.3,2.2-6.5c0.2-0.5,0.3-1,0.5-1.5
		c0,0,0,0,0-0.1c1.7,0,3.3,0,5,0c0.5,6.3,1,12.6,1.5,18.8c-1.5,0-3.1,0-4.6,0c0,0,0-0.1,0-0.1c0-0.5-0.1-1-0.1-1.5
		c0-0.5-0.1-1.1-0.1-1.6c-0.1-0.8-0.1-1.6-0.2-2.4c0-0.7-0.1-1.3-0.1-2c-0.1-1-0.1-2-0.1-3.1c0-0.3,0-0.6,0-0.8c0,0,0-0.1,0-0.1
		c0,0,0,0,0,0c0,0,0,0,0,0c0,0,0,0,0,0c0,0,0,0,0,0.1c-0.9,2.8-2,5.6-3,8.4c0,0,0,0,0,0c0,0,0,0,0,0c0,0,0,0,0,0c-1.3,0-2.6,0-3.9,0
		c-1-2.9-2.1-5.7-3-8.6c0,0,0,0,0,0c0,0,0,0.1,0,0.1c0,0.6,0,1.3,0,1.9c0,0.5,0,1-0.1,1.5c0,0.5-0.1,1.1-0.1,1.6
		c-0.1,0.9-0.1,1.8-0.2,2.6c-0.1,0.9-0.1,1.8-0.2,2.6c0,0.4-0.1,0.8-0.1,1.2c0,0,0,0,0,0.1c-0.1,0-4.5,0-4.6,0
		C70.2,20.2,70.7,13.9,71.3,7.6z"/>
	<path fill="#FFFFFF" d="M51,9.9c-0.7,1.2-1.4,2.3-2.1,3.5c-0.1,0-0.1-0.1-0.1-0.1c-1-0.8-2-1.3-3.2-1.6c-1.1-0.3-2.2-0.2-3.3,0.1
		c-1.5,0.5-2.5,1.5-3,2.9c-0.3,0.9-0.5,1.8-0.4,2.7c0.1,1,0.4,2,1,2.9c0.8,1.2,1.9,1.9,3.4,2.2c1.1,0.2,2.2,0,3.2-0.4
		c1-0.4,1.8-1,2.6-1.7c0,0,0.1-0.1,0.1-0.1c0.8,1.1,1.6,2.2,2.4,3.4c-0.1,0.1-0.1,0.1-0.2,0.2c-0.7,0.7-1.6,1.3-2.5,1.8
		c-1,0.5-2.1,0.9-3.3,1c-0.8,0.1-1.5,0.1-2.3,0.1c-1-0.1-2-0.2-3-0.6c-3.1-1.1-5.1-3.3-5.9-6.4c-0.3-1.1-0.4-2.2-0.3-3.3
		c0.1-1.9,0.7-3.7,1.8-5.2c1.2-1.7,2.8-2.8,4.8-3.4c0.9-0.3,1.8-0.4,2.8-0.5c1.5-0.1,3,0.1,4.4,0.7c1.1,0.4,2.1,1,2.9,1.7
		C50.8,9.8,50.9,9.9,51,9.9z"/>
	<path fill="#FFFFFF" d="M66.3,13.4c-0.4-0.3-0.8-0.6-1.2-0.9c-0.8-0.5-1.6-0.8-2.5-1c-1.4-0.2-2.8-0.1-4,0.7c-1,0.6-1.6,1.5-2,2.6
		c-0.3,0.8-0.4,1.6-0.3,2.5c0.1,1,0.4,1.9,0.9,2.7c0.8,1.3,1.9,2.1,3.4,2.4c1.1,0.2,2.2,0.1,3.3-0.4c1-0.4,1.8-1,2.6-1.7
		c0,0,0.1,0,0.1-0.1c0,0,0,0,0,0c0.8,1.1,1.6,2.2,2.4,3.4c-0.1,0.1-0.3,0.3-0.4,0.4c-1.2,1.1-2.6,1.9-4.2,2.3
		c-1.2,0.3-2.4,0.5-3.6,0.4c-1.3-0.1-2.6-0.4-3.9-0.9c-2.5-1.2-4.1-3.1-4.9-5.7c-0.4-1.2-0.5-2.4-0.4-3.6c0.1-1.7,0.6-3.3,1.5-4.8
		c1.2-1.9,3-3.2,5.1-3.9c0.9-0.3,1.8-0.5,2.8-0.5c1.7-0.1,3.4,0.2,5,0.9c0.8,0.4,1.6,0.9,2.3,1.5c0.1,0.1,0.1,0.1,0.2,0.2
		c0,0,0,0,0,0.1C67.7,11.1,67,12.3,66.3,13.4z"/>
</g>
</svg>
