<?xml version="1.0" encoding="utf-8"?>
<!-- Generator: Adobe Illustrator 16.0.0, SVG Export Plug-In . SVG Version: 6.00 Build 0)  -->
<!DOCTYPE svg PUBLIC "-//W3C//DTD SVG 1.1//EN" "http://www.w3.org/Graphics/SVG/1.1/DTD/svg11.dtd">
<svg version="1.1" id="Layer_1" xmlns="http://www.w3.org/2000/svg" xmlns:xlink="http://www.w3.org/1999/xlink" x="0px" y="0px"
	 width="154px" height="28px" viewBox="0 0 154 28" enable-background="new 0 0 154 28" xml:space="preserve">
<g>
	<path fill="#1DADBB" d="M9.005,11.251c0-0.625,0.243-1.163,0.725-1.614c0.483-0.452,1.059-0.678,1.729-0.678
		c0.617-0.044,1.126-0.261,1.521-0.641c0.396-0.381,0.594-0.839,0.594-1.371c0-0.531-0.203-0.989-0.611-1.371
		c-0.409-0.383-0.898-0.572-1.467-0.572H5.442v12.909h6.016c0.644,0,1.193-0.213,1.652-0.642c0.458-0.428,0.686-0.941,0.686-1.544
		c0-0.579-0.215-1.075-0.648-1.493c-0.436-0.416-0.999-0.647-1.69-0.694c-0.669,0-1.246-0.225-1.729-0.674
		C9.248,12.412,9.005,11.875,9.005,11.251 M11.495,0.388c0.965,0,1.88,0.175,2.749,0.522c0.864,0.345,1.613,0.816,2.247,1.404
		c0.631,0.589,1.13,1.29,1.502,2.099c0.371,0.811,0.558,1.666,0.558,2.568c0,0.81-0.149,1.58-0.447,2.307
		c-0.296,0.729-0.705,1.383-1.225,1.961c0.57,0.603,1.015,1.279,1.336,2.03c0.322,0.752,0.483,1.567,0.483,2.448
		c0,0.947-0.192,1.833-0.574,2.653c-0.386,0.822-0.897,1.533-1.542,2.137c-0.644,0.6-1.411,1.08-2.301,1.439
		c-0.892,0.357-1.834,0.538-2.822,0.538H2.99c-0.719,0-1.319-0.229-1.802-0.679c-0.483-0.449-0.723-1-0.723-1.649V2.714
		c0-0.625,0.24-1.167,0.723-1.631C1.671,0.62,2.271,0.388,2.99,0.388L11.495,0.388L11.495,0.388z"/>
	<path fill="#1DADBB" d="M22.375,5.665c0.645,0,1.211,0.225,1.707,0.677c0.496,0.45,0.742,1,0.742,1.647v6.107
		c0,0.532,0.111,1.037,0.337,1.51c0.222,0.473,0.519,0.885,0.889,1.23c0.372,0.348,0.812,0.624,1.318,0.834
		c0.51,0.208,1.048,0.313,1.617,0.313c0.544,0,1.064-0.094,1.562-0.28c0.494-0.183,0.932-0.438,1.316-0.763
		c0.385-0.323,0.687-0.716,0.91-1.181c0.224-0.461,0.335-0.961,0.335-1.493V7.954c0-0.578,0.236-1.099,0.705-1.562
		c0.47-0.462,1.04-0.705,1.708-0.727c0.668,0,1.243,0.224,1.727,0.676c0.483,0.45,0.737,0.954,0.762,1.508v6.245
		c0,1.159-0.236,2.245-0.707,3.264c-0.469,1.018-1.114,1.908-1.931,2.67c-0.816,0.765-1.771,1.365-2.859,1.807
		c-1.089,0.438-2.265,0.658-3.529,0.658c-1.188,0.047-2.327-0.145-3.416-0.574c-1.091-0.428-2.049-1.017-2.878-1.767
		c-0.83-0.752-1.493-1.631-1.986-2.639c-0.495-1.005-0.744-2.063-0.744-3.174V7.954c0-0.603,0.229-1.128,0.687-1.58
		C21.107,5.924,21.681,5.687,22.375,5.665"/>
	<path fill="#1DADBB" d="M47.627,10.21c-0.569,0-1.109,0.103-1.616,0.312c-0.508,0.208-0.953,0.49-1.336,0.849
		c-0.386,0.36-0.688,0.777-0.91,1.249c-0.224,0.475-0.335,0.967-0.335,1.476c0,0.532,0.112,1.034,0.335,1.51
		c0.222,0.476,0.524,0.884,0.91,1.23c0.383,0.348,0.828,0.625,1.336,0.835c0.505,0.208,1.045,0.312,1.616,0.312
		c0.544,0,1.064-0.104,1.558-0.312c0.497-0.21,0.936-0.492,1.32-0.85c0.382-0.36,0.686-0.771,0.908-1.233
		c0.222-0.461,0.335-0.96,0.335-1.492c0-0.556-0.112-1.07-0.335-1.542c-0.223-0.475-0.526-0.886-0.908-1.234
		c-0.384-0.347-0.823-0.619-1.32-0.815C48.691,10.307,48.171,10.21,47.627,10.21 M54.2,0.388c0.643,0,1.208,0.215,1.69,0.643
		c0.482,0.427,0.725,0.978,0.725,1.648v11.417c0,1.135-0.243,2.211-0.725,3.229c-0.483,1.018-1.14,1.906-1.969,2.672
		c-0.83,0.762-1.789,1.371-2.878,1.82c-1.088,0.454-2.228,0.679-3.416,0.679c-1.189,0-2.327-0.222-3.417-0.66
		c-1.089-0.438-2.048-1.042-2.878-1.806c-0.829-0.763-1.491-1.652-1.987-2.671c-0.495-1.018-0.742-2.104-0.742-3.263
		c0-1.132,0.24-2.208,0.724-3.227c0.484-1.02,1.139-1.909,1.968-2.672c0.829-0.762,1.789-1.371,2.877-1.823
		c1.091-0.451,2.24-0.676,3.455-0.676c1.485,0,2.859,0.311,4.122,0.936v-3.99c0-0.3,0.069-0.59,0.205-0.868
		c0.136-0.278,0.316-0.521,0.539-0.729c0.223-0.208,0.482-0.369,0.779-0.485C53.57,0.446,53.876,0.388,54.2,0.388"/>
	<path fill="#1DADBB" d="M66.751,10.21c-0.569,0-1.107,0.103-1.615,0.312c-0.507,0.208-0.955,0.49-1.336,0.849
		c-0.385,0.36-0.687,0.777-0.911,1.249c-0.222,0.475-0.333,0.967-0.333,1.476c0,0.532,0.111,1.034,0.333,1.51
		c0.224,0.476,0.525,0.884,0.911,1.23c0.382,0.348,0.829,0.625,1.336,0.835c0.508,0.208,1.046,0.312,1.615,0.312
		c0.545,0,1.064-0.104,1.56-0.312c0.495-0.21,0.934-0.492,1.318-0.85c0.384-0.36,0.686-0.771,0.909-1.233
		c0.223-0.461,0.335-0.96,0.335-1.492c0-0.556-0.111-1.07-0.335-1.542c-0.223-0.475-0.525-0.886-0.909-1.234
		c-0.384-0.347-0.823-0.619-1.318-0.815C67.816,10.307,67.297,10.21,66.751,10.21 M73.325,0.388c0.644,0,1.207,0.215,1.688,0.643
		c0.483,0.427,0.725,0.978,0.725,1.648v11.417c0,1.135-0.242,2.211-0.725,3.229c-0.482,1.018-1.14,1.906-1.97,2.672
		c-0.828,0.762-1.787,1.371-2.877,1.82c-1.089,0.454-2.227,0.679-3.416,0.679c-1.189,0-2.327-0.222-3.416-0.66
		s-2.048-1.042-2.878-1.806c-0.828-0.763-1.492-1.652-1.987-2.671c-0.495-1.018-0.742-2.104-0.742-3.263
		c0-1.132,0.241-2.208,0.724-3.227c0.483-1.02,1.138-1.909,1.969-2.672c0.828-0.762,1.788-1.371,2.878-1.823
		c1.089-0.451,2.24-0.676,3.453-0.676c1.485,0,2.859,0.311,4.122,0.936v-3.99c0-0.3,0.068-0.59,0.204-0.868
		c0.136-0.278,0.316-0.521,0.541-0.729c0.222-0.208,0.483-0.369,0.778-0.485C72.694,0.446,73.003,0.388,73.325,0.388"/>
	<path fill="#1DADBB" d="M76.667,11.078V7.99c0-0.648,0.241-1.199,0.723-1.651c0.483-0.45,1.06-0.676,1.729-0.676
		c0.716,0,1.318,0.226,1.799,0.676c0.485,0.452,0.725,1.002,0.725,1.651v3.088c0,0.947,0.341,1.74,1.022,2.376
		c0.681,0.637,1.528,0.955,2.543,0.955c1.016,0,1.869-0.318,2.562-0.955c0.694-0.636,1.042-1.429,1.042-2.376V7.99
		c0-0.648,0.239-1.199,0.722-1.651c0.483-0.45,1.06-0.676,1.728-0.676c0.719,0,1.319,0.226,1.802,0.676
		c0.481,0.452,0.724,1.002,0.724,1.651v3.088v0.034c0,0.903-0.153,1.764-0.465,2.586c-0.31,0.82-0.737,1.567-1.28,2.238
		c-0.544,0.669-1.194,1.249-1.949,1.734c-0.756,0.485-1.579,0.846-2.471,1.076v6.767c0,0.647-0.239,1.197-0.723,1.648
		c-0.482,0.452-1.058,0.676-1.728,0.676c-0.718,0-1.317-0.224-1.801-0.676c-0.482-0.451-0.725-1.001-0.725-1.648v-6.802
		c-0.867-0.252-1.664-0.625-2.396-1.11c-0.73-0.485-1.363-1.063-1.893-1.734c-0.533-0.67-0.949-1.411-1.246-2.222
		C76.817,12.835,76.667,11.98,76.667,11.078"/>
	<path fill="#F27650" d="M101.398,22.495c-0.916,0-1.776-0.163-2.58-0.487c-0.807-0.323-1.504-0.756-2.099-1.302
		c-0.594-0.542-1.063-1.179-1.411-1.908c-0.346-0.729-0.519-1.499-0.519-2.307V7.955c-0.025-0.301,0.031-0.59,0.167-0.867
		c0.134-0.277,0.315-0.521,0.538-0.729c0.223-0.209,0.483-0.371,0.78-0.486S96.894,5.7,97.239,5.7c0.645,0,1.195,0.202,1.653,0.606
		c0.459,0.403,0.712,0.884,0.762,1.439v8.605c0.023,0.464,0.203,0.845,0.538,1.145c0.334,0.302,0.737,0.451,1.206,0.451
		c0.421,0,0.804-0.144,1.15-0.433c0.348-0.289,0.532-0.666,0.558-1.128v-4.304c0-0.578,0.248-1.069,0.744-1.475
		c0.494-0.404,1.051-0.606,1.671-0.606c0.668,0,1.244,0.221,1.726,0.658c0.483,0.44,0.726,0.972,0.726,1.598v4.127
		c0,0.511,0.18,0.898,0.538,1.163c0.357,0.265,0.749,0.399,1.171,0.399c0.494,0,0.908-0.149,1.244-0.451
		c0.333-0.3,0.5-0.67,0.5-1.111v-8.43c0-0.603,0.243-1.128,0.725-1.58c0.482-0.451,1.046-0.675,1.69-0.675
		c0.643,0,1.212,0.207,1.708,0.625c0.494,0.415,0.743,0.899,0.743,1.455v8.711c0,0.833-0.181,1.618-0.539,2.359
		c-0.359,0.74-0.843,1.376-1.448,1.909c-0.607,0.532-1.312,0.953-2.116,1.265c-0.806,0.312-1.642,0.47-2.507,0.47
		c-1.587,0-2.973-0.451-4.16-1.353c-0.594,0.463-1.244,0.803-1.95,1.021C102.867,22.384,102.141,22.495,101.398,22.495"/>
	<path fill="#F27650" d="M129.882,12.153c-0.422-0.719-0.917-1.221-1.487-1.51c-0.568-0.289-1.2-0.434-1.892-0.434
		c-0.72,0-1.356,0.145-1.913,0.434c-0.557,0.289-1.048,0.791-1.467,1.51H129.882z M126.503,5.698c1.188,0,2.328,0.231,3.417,0.694
		c1.089,0.464,2.048,1.083,2.878,1.856c0.827,0.776,1.491,1.665,1.986,2.673c0.493,1.007,0.742,2.064,0.742,3.174
		c0,0.603-0.241,1.077-0.723,1.423c-0.484,0.348-1.085,0.511-1.802,0.488h-9.878c0.816,1.317,1.942,1.978,3.379,1.978
		c0.395,0,0.73-0.037,1.002-0.104c0.273-0.07,0.513-0.15,0.725-0.244c0.209-0.092,0.421-0.174,0.631-0.242
		c0.21-0.069,0.454-0.104,0.727-0.104c0.519,0.024,0.969,0.163,1.353,0.417s0.67,0.572,0.855,0.954
		c0.187,0.382,0.248,0.792,0.187,1.231c-0.064,0.44-0.281,0.845-0.651,1.214c-0.668,0.51-1.41,0.863-2.227,1.06
		c-0.818,0.197-1.686,0.308-2.601,0.328c-1.188,0.046-2.328-0.156-3.417-0.606c-1.09-0.451-2.05-1.065-2.877-1.84
		c-0.831-0.775-1.485-1.684-1.968-2.723c-0.484-1.044-0.726-2.119-0.726-3.229c0-1.086,0.241-2.138,0.726-3.158
		c0.482-1.018,1.13-1.913,1.949-2.689c0.816-0.774,1.77-1.393,2.858-1.856C124.139,5.93,125.289,5.698,126.503,5.698"/>
	<path fill="#F27650" d="M141.32,14.096c0,0.532,0.111,1.034,0.334,1.51s0.525,0.884,0.909,1.231s0.823,0.625,1.318,0.835
		c0.497,0.208,1.028,0.312,1.597,0.312c0.545,0,1.071-0.104,1.579-0.312c0.506-0.21,0.953-0.487,1.336-0.835
		c0.384-0.347,0.688-0.756,0.91-1.231s0.335-0.978,0.335-1.51c0-0.531-0.111-1.036-0.335-1.509c-0.223-0.475-0.526-0.885-0.91-1.231
		c-0.383-0.348-0.83-0.625-1.336-0.833c-0.508-0.209-1.034-0.312-1.579-0.312c-0.568,0-1.1,0.11-1.597,0.33
		c-0.495,0.221-0.935,0.508-1.318,0.867c-0.384,0.36-0.687,0.776-0.909,1.249C141.432,13.131,141.32,13.61,141.32,14.096
		 M138.868,0.353c0.321-0.022,0.631,0.031,0.93,0.158c0.295,0.126,0.562,0.294,0.799,0.503c0.233,0.208,0.412,0.457,0.538,0.746
		c0.122,0.289,0.186,0.583,0.186,0.884v3.99c0.866-0.415,1.763-0.688,2.692-0.814c0.928-0.126,1.85-0.126,2.767,0
		c0.916,0.126,1.808,0.383,2.674,0.765c0.867,0.381,1.672,0.895,2.414,1.543c0.866,0.832,1.516,1.73,1.95,2.689
		c0.433,0.961,0.648,2.054,0.648,3.279c0,1.158-0.24,2.245-0.724,3.263s-1.133,1.907-1.948,2.671
		c-0.819,0.764-1.771,1.365-2.861,1.805c-1.089,0.439-2.239,0.661-3.455,0.661c-1.188,0-2.327-0.226-3.416-0.679
		c-1.089-0.449-2.049-1.059-2.877-1.821c-0.831-0.765-1.493-1.654-1.986-2.672c-0.497-1.018-0.743-2.094-0.743-3.228V2.471
		c0-0.279,0.075-0.551,0.223-0.816c0.149-0.266,0.334-0.497,0.558-0.694c0.223-0.194,0.476-0.351,0.759-0.467
		C138.28,0.377,138.571,0.331,138.868,0.353"/>
</g>
</svg>
